<!-- <svg xmlns="http://www.w3.org/2000/svg" width="26" height="26" viewBox="0 0 26 26" fill="none"><path d="M15.5999 15.5999L22.5332 22.5332M17.7665 10.3999C17.7665 14.4684 14.4684 17.7665 10.3999 17.7665C6.33137 17.7665 3.0332 14.4684 3.0332 10.3999C3.0332 6.33137 6.33137 3.0332 10.3999 3.0332C14.4684 3.0332 17.7665 6.33137 17.7665 10.3999Z" stroke="black" stroke-linejoin="round"></path></svg> -->

<svg xmlns="http://www.w3.org/2000/svg" width="28" height="28" viewBox="0 0 28 28" fill="none"><path d="M16.8004 16.8L23.1004 23.1M18.9004 11.9C18.9004 15.766 15.7664 18.9 11.9004 18.9C8.0344 18.9 4.90039 15.766 4.90039 11.9C4.90039 8.03403 8.0344 4.90002 11.9004 4.90002C15.7664 4.90002 18.9004 8.03403 18.9004 11.9Z" stroke="currentColor" stroke-width="1.4"></path></svg>