<svg width="22" height="22" viewBox="0 0 22 22" fill="none" xmlns="http://www.w3.org/2000/svg"><title></title><path fill-rule="evenodd" clip-rule="evenodd" d="M10.9853 17.4706L4.97487 11.4602C3.60804 10.0934 3.60804 7.87731 4.97487 6.51048C6.34171 5.14364 8.55779 5.14364 9.92462 6.51048L10.6421 7.22799L10.9853 7.57114L11.6924 8.27824L10.9853 8.98535L9.21751 7.21758C8.2412 6.24127 6.65829 6.24127 5.68198 7.21758C4.70567 8.1939 4.70567 9.77681 5.68198 10.7531L10.9853 16.0564L15.2279 11.8138L15.935 12.5209L10.9853 17.4706ZM16.6421 11.8138L16.9957 11.4602C18.3625 10.0934 18.3625 7.87731 16.9957 6.51048C15.6289 5.14364 13.4128 5.14364 12.0459 6.51048L11.6924 6.86403L12.3995 7.57114L12.753 7.21758C13.7294 6.24127 15.3123 6.24127 16.2886 7.21758C17.2649 8.1939 17.2649 9.77681 16.2886 10.7531L15.935 11.1067L16.6421 11.8138Z" fill="#777"></path></svg>