<!-- <svg width="30" height="30" viewBox="0 0 30 30" fill="none" xmlns="http://www.w3.org/2000/svg"><title></title><path d="M15.3779 9.38123L13.6524 7.65578C11.5073 5.51066 8.02936 5.51065 5.88423 7.65578C3.73911 9.8009 3.73911 13.2788 5.88423 15.424L14.9992 24.539L18.5248 21.0134C18.6735 20.8647 18.8127 20.7102 18.9425 20.5505L23.0949 16.3982M16.396 7.56125C18.5447 5.46384 21.9869 5.4797 24.116 7.60884C26.2445 9.73732 26.261 13.178 24.1656 15.3268" stroke="#777"></path></svg> -->

<svg xmlns="http://www.w3.org/2000/svg" width="100%" height="100%" viewBox="0 0 20 20" fill="none" class="" fill-opacity="0"><path d="M9.79493 16.3061C9.91046 16.4154 10.0895 16.4154 10.2051 16.3061C11.1045 15.4553 14.7235 12.0265 16.25 10.5C16.8895 9.85325 17.5 8.75 17.5 7.5C17.5 5.34156 15.8342 3.5 13.75 3.5C11.9105 3.5 11 4.99545 10 6.25C9 4.99545 8.08947 3.5 6.25 3.5C4.16579 3.5 2.5 5.34156 2.5 7.5C2.5 8.75 3.11053 9.85325 3.75 10.5C5.27651 12.0265 8.89549 15.4553 9.79493 16.3061Z" stroke="black" stroke-width="1.4" stroke-miterlimit="10" class="stroke-black" vector-effect="non-scaling-stroke"></path></svg>