<svg width="22" height="22" viewBox="0 0 22 22" fill="none" xmlns="http://www.w3.org/2000/svg"><title></title><circle cx="15.5" cy="6" r="3" stroke="#777"></circle><circle cx="15.5" cy="16" r="3" stroke="#777"></circle><rect x="8.73704" y="8.57047" width="4" height="1" transform="rotate(-27 8.73704 8.57047)" fill="#777"></rect><rect width="4" height="1" transform="matrix(-0.891007 -0.45399 -0.45399 0.891007 12.7551 14.4625)" fill="#777"></rect><path fill-rule="evenodd" clip-rule="evenodd" d="M6.00057 8.54989L6.00005 7.53543C4.30388 7.77802 3 9.23674 3 11C3 12.7632 4.30388 14.222 6.00005 14.4646L6.00057 13.4501C4.85917 13.2187 4 12.2097 4 11C4 9.79031 4.85917 8.7813 6.00057 8.54989ZM7.00095 14.4644C8.69663 14.2214 10 12.7629 10 11C10 9.23709 8.69663 7.7786 7.00095 7.53557L7.00043 8.55009C8.14134 8.78189 9 9.79067 9 11C9 12.2093 8.14134 13.2181 7.00043 13.4499L7.00095 14.4644Z" fill="#777"></path></svg>