<svg xmlns="http://www.w3.org/2000/svg" width="29" height="28" viewBox="0 0 29 28" fill="none"><path d="M27.8 13.8462C27.8 11.1539 27.3148 8.49959 26.411 5.95946H25.0315C25.9734 8.48057 26.4681 11.1253 26.4681 13.8462C26.4681 16.5671 25.9353 19.4688 24.9079 22.104H26.2873C27.2767 19.4497 27.8 16.6718 27.8 13.8462Z" fill="#666"></path><path d="M18.353 19.4022C17.6014 19.8493 16.3932 20.0681 14.7283 20.0681C13.0634 20.0681 11.9123 19.8874 11.1036 19.5258C10.295 19.1453 9.75271 18.4413 9.49585 17.3948H7.65021C7.86902 18.8694 8.54449 19.9254 9.65758 20.5533C10.7707 21.1717 12.4641 21.4761 14.7188 21.4761C16.9735 21.4761 18.6479 21.1432 19.6754 20.4677C20.7219 19.7827 21.2451 18.7267 21.2451 17.3092C21.2451 15.6728 20.6363 14.6263 19.428 14.1697C18.2293 13.713 16.9069 13.4181 15.4704 13.2944C14.0338 13.1517 12.7114 12.971 11.4937 12.7522C10.295 12.5334 9.69563 11.8293 9.69563 10.6592C9.69563 9.67928 10.1047 8.9943 10.9324 8.58521C11.7601 8.17613 12.9303 7.97635 14.4524 7.97635C15.7938 7.97635 16.8784 8.1571 17.7156 8.51862C18.5528 8.88014 19.038 9.5556 19.1807 10.526H20.9978C20.8456 9.12749 20.2272 8.12856 19.1331 7.51018C18.0486 6.88228 16.4788 6.56833 14.4429 6.56833C12.407 6.56833 10.7516 6.90131 9.61001 7.57677C8.47789 8.24273 7.91659 9.27971 7.91659 10.6782C7.91659 12.267 8.51595 13.2849 9.71466 13.713C10.9324 14.1412 12.2548 14.4361 13.6913 14.5693C15.1279 14.6929 16.4503 14.8927 17.649 15.1591C18.8667 15.4065 19.4661 16.1485 19.4661 17.3758C19.4661 18.2796 19.0855 18.955 18.334 19.4022H18.353Z" fill="#666"></path><path d="M3.96845 5.94995H2.58898C1.68519 8.49959 1.2 11.1539 1.2 13.8367C1.2 16.5195 1.72324 19.4307 2.71266 22.0945H4.09213C3.06466 19.4688 2.5319 16.6908 2.5319 13.8367C2.5319 10.9826 3.02661 8.47105 3.96845 5.94995Z" fill="#666"></path></svg>