<svg width="30" height="30" viewBox="0 0 30 30" fill="none" xmlns="http://www.w3.org/2000/svg"><path fill-rule="evenodd" clip-rule="evenodd" d="M24.3783 7.50181C25.4116 7.7784 26.2236 8.59039 26.5002 9.62364H26.4982C27 11.4946 27 15.4004 27 15.4004C27 15.4004 27 19.3062 26.4982 21.1771C26.2216 22.2104 25.4096 23.0224 24.3764 23.299C22.5054 23.8008 15 23.8008 15 23.8008C15 23.8008 7.49457 23.8008 5.62364 23.299C4.59039 23.0224 3.7784 22.2104 3.50181 21.1771C3 19.3062 3 15.4004 3 15.4004C3 15.4004 3 11.4946 3.50181 9.62364C3.7784 8.59039 4.59039 7.7784 5.62364 7.50181C7.49457 7 15 7 15 7C15 7 22.5054 7 24.3783 7.50181ZM18.8367 15.4011L12.5996 19.0007V11.8015L18.8367 15.4011Z" fill="#4F4F4F"></path></svg>