<svg xmlns="http://www.w3.org/2000/svg" width="22px" height="22px" viewBox="0 0 22 22" version="1.1"><title>검색어로 검색창 열기</title><g stroke="none" stroke-width="1" fill="none" fill-rule="evenodd"><path d="M9.5,16 C13.0898509,16 16,13.0898509 16,9.5 C16,5.91014913 13.0898509,3 9.5,3 C5.91014913,3 3,5.91014913 3,9.5 C3,13.0898509 5.91014913,16 9.5,16 Z M9.5,15 C6.46243388,15 4,12.5375661 4,9.5 C4,6.46243388 6.46243388,4 9.5,4 C12.5375661,4 15,6.46243388 15,9.5 C15,12.5375661 12.5375661,15 9.5,15 Z" fill="black" fill-rule="nonzero"></path><polygon fill="black" fill-rule="nonzero" points="14.3464466 15.0535534 18.3464466 19.0535534 19.0535534 18.3464466 15.0535534 14.3464466"></polygon></g></svg>