<svg xmlns="http://www.w3.org/2000/svg" width="28" height="28" viewBox="0 0 28 28" fill="none"><path d="M12.4777 4.19995H15.523C15.5674 4.19995 15.6065 4.22921 15.619 4.2718L16.4305 7.0375C16.4394 7.06784 16.4622 7.09214 16.4918 7.10331C17.2634 7.39482 17.9728 7.81784 18.5938 8.34578C18.6184 8.36666 18.6514 8.37469 18.6827 8.36712L21.4294 7.70323C21.4729 7.69273 21.518 7.71234 21.54 7.75126L23.0646 10.4511C23.0859 10.4889 23.0805 10.5361 23.051 10.568L21.112 12.6717C21.0909 12.6946 21.0817 12.726 21.0869 12.7566C21.1542 13.1608 21.1893 13.5762 21.1893 14C21.1893 14.4237 21.1542 14.8391 21.0869 15.2433C21.0817 15.2739 21.0909 15.3053 21.112 15.3282L23.051 17.4319C23.0805 17.4638 23.0859 17.511 23.0646 17.5488L21.54 20.2486C21.518 20.2876 21.4729 20.3072 21.4294 20.2967L18.6827 19.6328C18.6514 19.6252 18.6184 19.6332 18.5938 19.6541C17.9728 20.1821 17.2634 20.6051 16.4918 20.8966C16.4622 20.9078 16.4394 20.9321 16.4305 20.9624L15.619 23.7281C15.6065 23.7707 15.5674 23.7999 15.523 23.7999H12.4777C12.4333 23.7999 12.3943 23.7707 12.3818 23.7281L11.5703 20.9624C11.5614 20.9321 11.5386 20.9078 11.509 20.8966C10.7373 20.6051 10.028 20.1821 9.40699 19.6541C9.38243 19.6332 9.3494 19.6252 9.31807 19.6328L6.57135 20.2967C6.5279 20.3072 6.48276 20.2876 6.46078 20.2486L4.93619 17.5488C4.91485 17.511 4.92033 17.4638 4.94974 17.4319L6.88877 15.3282C6.90984 15.3053 6.91904 15.2739 6.91393 15.2433C6.84658 14.8391 6.8115 14.4237 6.8115 14C6.8115 13.5762 6.84658 13.1608 6.91393 12.7566C6.91904 12.726 6.90984 12.6946 6.88877 12.6717L4.94974 10.568C4.92033 10.5361 4.91485 10.4889 4.93619 10.4511L6.46078 7.75126C6.48276 7.71234 6.5279 7.69273 6.57135 7.70323L9.31807 8.36712C9.3494 8.37469 9.38243 8.36666 9.40699 8.34578C10.028 7.81784 10.7373 7.39482 11.509 7.10331C11.5386 7.09214 11.5614 7.06784 11.5703 7.0375L12.3818 4.2718C12.3943 4.22921 12.4333 4.19995 12.4777 4.19995Z" stroke="currentColor" stroke-width="1.4"></path><circle cx="13.9992" cy="14" r="2.8" stroke="currentColor" stroke-width="1.4"></circle></svg>